<svg xmlns="http://www.w3.org/2000/svg" viewBox="0 0 1303.15 273.7"><defs><style>.cls-1{fill:#1e1e1e;}.cls-2{fill:#e76324;}</style></defs><g id="Front"><path class="cls-1" d="M128,236.62,84.17,159.2H65.38v77.42H25.53V37.94h74.58q23.06,0,39.28,8.11T163.73,68a59.79,59.79,0,0,1,8.11,30.88,59.21,59.21,0,0,1-11.38,35.44q-11.4,15.79-33.88,21.78l47.54,80.55ZM65.38,129.31H98.69q16.22,0,24.19-7.83t8-21.77q0-13.67-8-21.21T98.69,71H65.38Z"/><path class="cls-1" d="M262.08,70.1v49.82H329v31.59H262.08v52.66h75.43v32.45H222.23v-199H337.51V70.1Z"/><path class="cls-1" d="M647.21,225.52a97.66,97.66,0,0,1-37-36.29Q596.55,166,596.54,136.71q0-29,13.67-52.23a97.75,97.75,0,0,1,37-36.3,103,103,0,0,1,51.24-13.09q28.18,0,51.38,13.09a97.09,97.09,0,0,1,36.72,36.3q13.51,23.21,13.52,52.23,0,29.32-13.52,52.52a96.73,96.73,0,0,1-36.86,36.29,106.76,106.76,0,0,1-102.48,0Zm82.84-30.6a55.62,55.62,0,0,0,21.34-23.2q7.7-15.08,7.69-35t-7.69-34.87a54.85,54.85,0,0,0-21.34-22.91q-13.66-8-31.6-8t-31.74,8a54.5,54.5,0,0,0-21.49,22.91q-7.68,14.94-7.69,34.87t7.69,35a55.26,55.26,0,0,0,21.49,23.2q13.8,8.12,31.74,8.11T730.05,194.92Z"/><polygon class="cls-1" points="968.8 35.09 911.03 130.83 887.77 92.24 922.25 35.09 968.8 35.09"/><path class="cls-2" d="M1131.88,37.94V70.1h52.94V236.62h39.86V70.1h52.94V37.94Z"/><polygon class="cls-2" points="413.11 236.61 374.49 236.61 374.49 136.69 413.11 97.84 413.11 236.61"/><polygon class="cls-2" points="413.11 37.45 413.11 76.22 374.45 76.22 413.11 37.45"/><path class="cls-2" d="M575,137a99.7,99.7,0,0,1-99.51,99.62H425.26l39.45-39.55h8.85A60.35,60.35,0,0,0,534,136.66a50.86,50.86,0,0,0-.67-8.4,59.28,59.28,0,0,0-17-34.29,51.54,51.54,0,0,0-5.94-5.16,59.3,59.3,0,0,0-36.76-12.55H434.79l38.66-38.77h2A99.41,99.41,0,0,1,575,137Z"/><polygon class="cls-1" points="902.85 144.4 902.85 236.62 863 236.62 863 155.43 856.33 144.37 854.69 141.65 843.66 123.37 834.22 107.72 790.4 35.09 836.94 35.09 847.83 53.13 857.27 68.79 879.59 105.81 902.82 144.35 902.85 144.4"/><circle class="cls-1" cx="1008.92" cy="218.87" r="19.75"/><path class="cls-1" d="M1069,44.06V94.73L1107.63,56V44.06Z"/><polygon class="cls-2" points="1107.63 75.36 1107.63 236.62 1069.01 236.62 1069.01 114.11 1107.63 75.36"/></g></svg>